<svg xmlns="http://www.w3.org/2000/svg" xmlns:xlink="http://www.w3.org/1999/xlink" width="1640" zoomAndPan="magnify" viewBox="0 0 1230 693.000001" height="924" preserveAspectRatio="xMidYMid meet" version="1.0"><defs><clipPath id="4c8c083634"><path d="M 268 10.289062 L 951 10.289062 L 951 691.804688 L 268 691.804688 Z M 268 10.289062 " clip-rule="nonzero"/></clipPath><clipPath id="b12dd74c40"><path d="M 398 156 L 965.863281 156 L 965.863281 626 L 398 626 Z M 398 156 " clip-rule="nonzero"/></clipPath><clipPath id="dcb8fb6353"><path d="M 253.640625 30 L 535 30 L 535 312 L 253.640625 312 Z M 253.640625 30 " clip-rule="nonzero"/></clipPath><clipPath id="e33baf19ef"><path d="M 253.640625 30 L 434 30 L 434 312 L 253.640625 312 Z M 253.640625 30 " clip-rule="nonzero"/></clipPath><clipPath id="243bc36a0a"><path d="M 253.640625 125 L 299 125 L 299 201 L 253.640625 201 Z M 253.640625 125 " clip-rule="nonzero"/></clipPath></defs><g clip-path="url(#4c8c083634)"><path fill="#6cf5c2" d="M 950.425781 351.046875 C 950.425781 356.621094 950.289062 362.1875 950.015625 367.753906 C 949.742188 373.320312 949.332031 378.878906 948.785156 384.425781 C 948.238281 389.96875 947.554688 395.5 946.738281 401.011719 C 945.917969 406.523438 944.964844 412.015625 943.878906 417.480469 C 942.789062 422.945312 941.570312 428.382812 940.214844 433.789062 C 938.859375 439.195312 937.371094 444.5625 935.753906 449.894531 C 934.136719 455.230469 932.386719 460.519531 930.507812 465.765625 C 928.628906 471.011719 926.621094 476.210938 924.488281 481.359375 C 922.355469 486.507812 920.09375 491.601562 917.710938 496.640625 C 915.328125 501.679688 912.820312 506.65625 910.191406 511.570312 C 907.5625 516.484375 904.816406 521.332031 901.949219 526.113281 C 899.082031 530.890625 896.097656 535.597656 893 540.234375 C 889.902344 544.867188 886.691406 549.421875 883.371094 553.898438 C 880.046875 558.375 876.617188 562.765625 873.082031 567.074219 C 869.542969 571.382812 865.902344 575.601562 862.15625 579.730469 C 858.410156 583.859375 854.566406 587.894531 850.625 591.835938 C 846.679688 595.777344 842.644531 599.617188 838.511719 603.359375 C 834.378906 607.101562 830.160156 610.742188 825.847656 614.277344 C 821.539062 617.8125 817.140625 621.238281 812.664062 624.558594 C 808.183594 627.878906 803.625 631.085938 798.988281 634.183594 C 794.351562 637.28125 789.644531 640.261719 784.859375 643.125 C 780.078125 645.992188 775.226562 648.738281 770.308594 651.363281 C 765.390625 653.992188 760.410156 656.496094 755.371094 658.878906 C 750.328125 661.261719 745.230469 663.519531 740.078125 665.652344 C 734.929688 667.785156 729.726562 669.789062 724.476562 671.667969 C 719.226562 673.542969 713.933594 675.292969 708.59375 676.910156 C 703.257812 678.527344 697.886719 680.011719 692.476562 681.367188 C 687.066406 682.722656 681.628906 683.941406 676.160156 685.03125 C 670.6875 686.117188 665.195312 687.070312 659.679688 687.886719 C 654.164062 688.703125 648.632812 689.386719 643.082031 689.933594 C 637.53125 690.480469 631.972656 690.890625 626.402344 691.164062 C 620.832031 691.4375 615.257812 691.574219 609.683594 691.574219 C 604.105469 691.574219 598.535156 691.4375 592.964844 691.164062 C 587.394531 690.890625 581.835938 690.480469 576.285156 689.933594 C 570.734375 689.386719 565.203125 688.703125 559.6875 687.886719 C 554.167969 687.070312 548.675781 686.117188 543.207031 685.03125 C 537.738281 683.941406 532.296875 682.722656 526.890625 681.367188 C 521.480469 680.011719 516.105469 678.527344 510.769531 676.910156 C 505.433594 675.292969 500.140625 673.542969 494.890625 671.667969 C 489.640625 669.789062 484.4375 667.785156 479.285156 665.652344 C 474.132812 663.519531 469.039062 661.261719 463.996094 658.878906 C 458.957031 656.496094 453.976562 653.992188 449.058594 651.363281 C 444.140625 648.738281 439.289062 645.992188 434.507812 643.125 C 429.722656 640.261719 425.011719 637.28125 420.375 634.183594 C 415.738281 631.085938 411.183594 627.878906 406.703125 624.558594 C 402.222656 621.238281 397.828125 617.8125 393.519531 614.277344 C 389.207031 610.742188 384.984375 607.101562 380.855469 603.359375 C 376.722656 599.617188 372.683594 595.777344 368.742188 591.835938 C 364.796875 587.894531 360.953125 583.859375 357.210938 579.730469 C 353.464844 575.601562 349.824219 571.382812 346.285156 567.074219 C 342.746094 562.765625 339.316406 558.375 335.996094 553.898438 C 332.675781 549.421875 329.464844 544.867188 326.367188 540.234375 C 323.265625 535.597656 320.285156 530.890625 317.417969 526.113281 C 314.550781 521.332031 311.804688 516.484375 309.175781 511.570312 C 306.546875 506.65625 304.039062 501.679688 301.65625 496.640625 C 299.269531 491.601562 297.011719 486.507812 294.878906 481.359375 C 292.742188 476.210938 290.738281 471.011719 288.859375 465.765625 C 286.980469 460.519531 285.230469 455.230469 283.613281 449.894531 C 281.992188 444.5625 280.507812 439.195312 279.152344 433.789062 C 277.796875 428.382812 276.574219 422.945312 275.488281 417.480469 C 274.398438 412.015625 273.445312 406.523438 272.628906 401.011719 C 271.808594 395.5 271.128906 389.96875 270.582031 384.425781 C 270.035156 378.878906 269.625 373.320312 269.351562 367.753906 C 269.078125 362.1875 268.941406 356.621094 268.941406 351.046875 C 268.941406 345.472656 269.078125 339.902344 269.351562 334.335938 C 269.625 328.769531 270.035156 323.214844 270.582031 317.667969 C 271.128906 312.121094 271.808594 306.59375 272.628906 301.082031 C 273.445312 295.566406 274.398438 290.078125 275.488281 284.613281 C 276.574219 279.148438 277.796875 273.710938 279.152344 268.304688 C 280.507812 262.898438 281.992188 257.53125 283.613281 252.195312 C 285.230469 246.863281 286.980469 241.574219 288.859375 236.328125 C 290.738281 231.078125 292.742188 225.882812 294.878906 220.734375 C 297.011719 215.582031 299.269531 210.492188 301.65625 205.453125 C 304.039062 200.414062 306.546875 195.4375 309.175781 190.523438 C 311.804688 185.609375 314.550781 180.761719 317.417969 175.980469 C 320.285156 171.199219 323.265625 166.492188 326.367188 161.859375 C 329.464844 157.226562 332.675781 152.671875 335.996094 148.195312 C 339.316406 143.71875 342.746094 139.328125 346.285156 135.019531 C 349.824219 130.710938 353.464844 126.492188 357.210938 122.363281 C 360.953125 118.234375 364.796875 114.199219 368.742188 110.257812 C 372.683594 106.316406 376.722656 102.476562 380.855469 98.734375 C 384.984375 94.992188 389.207031 91.351562 393.519531 87.816406 C 397.828125 84.28125 402.222656 80.851562 406.703125 77.53125 C 411.183594 74.214844 415.738281 71.003906 420.375 67.910156 C 425.011719 64.8125 429.722656 61.832031 434.507812 58.96875 C 439.289062 56.101562 444.140625 53.355469 449.058594 50.730469 C 453.976562 48.101562 458.957031 45.597656 463.996094 43.214844 C 469.039062 40.832031 474.132812 38.574219 479.285156 36.441406 C 484.4375 34.308594 489.640625 32.304688 494.890625 30.425781 C 500.140625 28.546875 505.433594 26.800781 510.769531 25.183594 C 516.105469 23.566406 521.480469 22.078125 526.890625 20.726562 C 532.296875 19.371094 537.738281 18.152344 543.207031 17.0625 C 548.675781 15.976562 554.167969 15.023438 559.6875 14.207031 C 565.203125 13.386719 570.734375 12.707031 576.285156 12.160156 C 581.835938 11.613281 587.394531 11.203125 592.964844 10.929688 C 598.535156 10.65625 604.105469 10.519531 609.683594 10.519531 C 615.257812 10.519531 620.832031 10.65625 626.402344 10.929688 C 631.972656 11.203125 637.53125 11.613281 643.082031 12.160156 C 648.632812 12.707031 654.164062 13.386719 659.679688 14.207031 C 665.195312 15.023438 670.6875 15.976562 676.160156 17.0625 C 681.628906 18.152344 687.066406 19.371094 692.476562 20.726562 C 697.886719 22.078125 703.257812 23.566406 708.59375 25.183594 C 713.933594 26.800781 719.226562 28.546875 724.476562 30.425781 C 729.726562 32.304688 734.929688 34.308594 740.078125 36.441406 C 745.230469 38.574219 750.328125 40.832031 755.371094 43.214844 C 760.410156 45.597656 765.390625 48.101562 770.308594 50.730469 C 775.226562 53.355469 780.078125 56.101562 784.859375 58.96875 C 789.644531 61.832031 794.351562 64.8125 798.988281 67.910156 C 803.625 71.003906 808.183594 74.214844 812.664062 77.53125 C 817.140625 80.851562 821.539062 84.28125 825.847656 87.816406 C 830.160156 91.351562 834.378906 94.992188 838.511719 98.734375 C 842.644531 102.476562 846.679688 106.316406 850.625 110.257812 C 854.566406 114.199219 858.410156 118.234375 862.15625 122.363281 C 865.902344 126.492188 869.542969 130.710938 873.082031 135.019531 C 876.617188 139.328125 880.046875 143.71875 883.371094 148.195312 C 886.691406 152.671875 889.902344 157.226562 893 161.859375 C 896.097656 166.492188 899.082031 171.199219 901.949219 175.980469 C 904.816406 180.761719 907.5625 185.609375 910.191406 190.523438 C 912.820312 195.4375 915.328125 200.414062 917.710938 205.453125 C 920.09375 210.492188 922.355469 215.582031 924.488281 220.734375 C 926.621094 225.882812 928.628906 231.078125 930.507812 236.328125 C 932.386719 241.574219 934.136719 246.863281 935.753906 252.195312 C 937.371094 257.53125 938.859375 262.898438 940.214844 268.304688 C 941.570312 273.710938 942.789062 279.148438 943.878906 284.613281 C 944.964844 290.078125 945.917969 295.566406 946.738281 301.082031 C 947.554688 306.59375 948.238281 312.121094 948.785156 317.667969 C 949.332031 323.214844 949.742188 328.769531 950.015625 334.335938 C 950.289062 339.902344 950.425781 345.472656 950.425781 351.046875 Z M 950.425781 351.046875 " fill-opacity="1" fill-rule="nonzero"/></g><path fill="#05e39c" d="M 508.292969 25.808594 C 490.355469 31.367188 473.109375 38.457031 456.558594 46.796875 C 502.035156 69.730469 533.191406 116.707031 533.191406 170.914062 C 533.191406 247.5 470.742188 309.90625 394.109375 309.90625 C 348.632812 309.90625 308.300781 288.082031 282.847656 254.308594 C 277.5625 271.960938 273.808594 290.308594 271.445312 309.070312 C 303.988281 337.980469 346.964844 355.632812 393.972656 355.632812 C 495.917969 355.632812 578.667969 272.933594 578.667969 171.054688 C 578.808594 112.121094 551.269531 59.582031 508.292969 25.808594 Z M 508.292969 25.808594 " fill-opacity="1" fill-rule="nonzero"/><g clip-path="url(#b12dd74c40)"><path fill="#8379c1" d="M 910.09375 156.460938 L 532.496094 156.460938 C 533.050781 161.1875 533.191406 166.050781 533.191406 170.914062 C 533.191406 246.109375 473.109375 307.679688 398.285156 309.90625 L 398.285156 506.714844 C 398.285156 537.433594 423.179688 562.3125 453.914062 562.3125 L 556.695312 562.3125 C 561.144531 562.3125 565.316406 564.398438 567.960938 568.011719 L 607.875 622.214844 C 611.492188 627.21875 619 627.21875 622.617188 622.214844 L 662.53125 568.011719 C 665.175781 564.398438 669.347656 562.3125 673.796875 562.3125 L 910.230469 562.3125 C 940.96875 562.3125 965.863281 537.433594 965.863281 506.714844 L 965.863281 212.054688 C 965.726562 181.339844 940.828125 156.460938 910.09375 156.460938 Z M 910.09375 156.460938 " fill-opacity="1" fill-rule="nonzero"/></g><path fill="#6e61b6" d="M 476.167969 506.714844 L 476.167969 283.082031 C 454.191406 299.203125 427.351562 308.933594 398.285156 309.90625 L 398.285156 506.714844 C 398.285156 537.433594 423.179688 562.3125 453.914062 562.3125 L 531.800781 562.3125 C 501.0625 562.3125 476.167969 537.433594 476.167969 506.714844 Z M 476.167969 506.714844 " fill-opacity="1" fill-rule="nonzero"/><path fill="#ffffff" d="M 659.335938 344.792969 L 721.222656 344.792969 C 726.925781 344.792969 731.65625 340.066406 731.65625 334.367188 C 731.65625 328.667969 726.925781 323.941406 721.222656 323.941406 L 669.765625 323.941406 L 669.765625 291.28125 L 721.222656 291.28125 C 726.925781 291.28125 731.65625 286.554688 731.65625 280.855469 C 731.65625 275.15625 726.925781 270.433594 721.222656 270.433594 L 669.765625 270.433594 L 669.765625 237.769531 L 721.222656 237.769531 C 726.925781 237.769531 731.65625 233.042969 731.65625 227.34375 C 731.65625 221.644531 726.925781 216.921875 721.222656 216.921875 L 659.335938 216.921875 C 653.632812 216.921875 648.902344 221.644531 648.902344 227.34375 L 648.902344 334.367188 C 648.902344 340.066406 653.492188 344.792969 659.335938 344.792969 Z M 659.335938 344.792969 " fill-opacity="1" fill-rule="nonzero"/><path fill="#ffffff" d="M 556.136719 344.375 C 557.390625 344.652344 558.78125 344.792969 560.03125 344.792969 C 566.570312 344.792969 572.550781 341.179688 575.46875 335.0625 L 591.1875 301.84375 L 606.902344 335.0625 C 610.378906 342.289062 618.304688 346.183594 626.234375 344.375 C 634.023438 342.566406 639.585938 335.757812 639.585938 327.835938 L 639.585938 227.207031 C 639.585938 221.507812 634.855469 216.78125 629.152344 216.78125 C 623.453125 216.78125 618.722656 221.507812 618.722656 227.207031 L 618.722656 311.015625 L 600.644531 272.933594 C 598.972656 269.320312 595.21875 266.957031 591.1875 266.957031 C 587.152344 266.957031 583.535156 269.320312 581.726562 272.933594 L 563.648438 311.015625 L 563.648438 227.207031 C 563.648438 221.507812 558.917969 216.78125 553.21875 216.78125 C 547.515625 216.78125 542.785156 221.507812 542.785156 227.207031 L 542.785156 327.835938 C 542.785156 335.757812 548.347656 342.566406 556.136719 344.375 Z M 556.136719 344.375 " fill-opacity="1" fill-rule="nonzero"/><path fill="#ffffff" d="M 751.820312 344.792969 L 813.988281 344.792969 C 819.691406 344.792969 824.421875 340.066406 824.421875 334.367188 C 824.421875 328.667969 819.691406 323.941406 813.988281 323.941406 L 762.253906 323.941406 L 762.253906 227.207031 C 762.253906 221.507812 757.523438 216.78125 751.820312 216.78125 C 746.121094 216.78125 741.390625 221.507812 741.390625 227.207031 L 741.390625 334.367188 C 741.390625 340.066406 745.980469 344.792969 751.820312 344.792969 Z M 751.820312 344.792969 " fill-opacity="1" fill-rule="nonzero"/><path fill="#ffffff" d="M 842.363281 344.792969 L 904.53125 344.792969 C 910.230469 344.792969 914.960938 340.066406 914.960938 334.367188 C 914.960938 328.667969 910.230469 323.941406 904.53125 323.941406 L 852.792969 323.941406 L 852.792969 227.207031 C 852.792969 221.507812 848.0625 216.78125 842.363281 216.78125 C 836.660156 216.78125 831.929688 221.507812 831.929688 227.207031 L 831.929688 334.367188 C 831.929688 340.066406 836.519531 344.792969 842.363281 344.792969 Z M 842.363281 344.792969 " fill-opacity="1" fill-rule="nonzero"/><path fill="#ffffff" d="M 857.660156 396.21875 C 863.363281 396.21875 868.089844 391.492188 868.089844 385.792969 C 868.089844 380.09375 863.363281 375.371094 857.660156 375.371094 L 796.328125 375.371094 C 790.625 375.371094 785.894531 380.09375 785.894531 385.792969 L 785.894531 491.566406 C 785.894531 497.265625 790.625 501.988281 796.328125 501.988281 L 857.660156 501.988281 C 863.363281 501.988281 868.089844 497.265625 868.089844 491.566406 C 868.089844 485.867188 863.363281 481.140625 857.660156 481.140625 L 806.757812 481.140625 L 806.757812 449.171875 L 857.660156 449.171875 C 863.363281 449.171875 868.089844 444.449219 868.089844 438.75 C 868.089844 433.050781 863.363281 428.324219 857.660156 428.324219 L 806.757812 428.324219 L 806.757812 396.355469 Z M 857.660156 396.21875 " fill-opacity="1" fill-rule="nonzero"/><path fill="#ffffff" d="M 526.792969 375.371094 L 506.347656 375.371094 C 500.644531 375.371094 495.917969 380.09375 495.917969 385.792969 L 495.917969 491.566406 C 495.917969 497.265625 500.644531 501.988281 506.347656 501.988281 L 526.792969 501.988281 C 555.164062 501.988281 578.113281 478.917969 578.113281 450.703125 L 578.113281 426.796875 C 578.113281 398.441406 555.164062 375.371094 526.792969 375.371094 Z M 557.25 450.703125 C 557.25 467.519531 543.621094 481.140625 526.792969 481.140625 L 516.777344 481.140625 L 516.777344 396.21875 L 526.792969 396.21875 C 543.621094 396.21875 557.25 409.839844 557.25 426.65625 Z M 557.25 450.703125 " fill-opacity="1" fill-rule="nonzero"/><path fill="#ffffff" d="M 758.359375 375.371094 C 752.65625 375.371094 747.925781 380.09375 747.925781 385.792969 L 747.925781 452.789062 L 706.066406 380.652344 C 703.699219 376.621094 698.832031 374.535156 694.382812 375.785156 C 689.792969 377.039062 686.59375 381.207031 686.59375 385.792969 L 686.59375 491.566406 C 686.59375 497.265625 691.324219 501.988281 697.023438 501.988281 C 702.726562 501.988281 707.457031 497.265625 707.457031 491.566406 L 707.457031 424.574219 L 749.316406 496.707031 C 751.265625 500.042969 754.742188 501.851562 758.359375 501.851562 C 760.167969 501.851562 761.972656 501.433594 763.644531 500.460938 C 766.980469 498.515625 768.789062 495.039062 768.789062 491.425781 L 768.789062 385.792969 C 768.789062 380.09375 764.058594 375.371094 758.359375 375.371094 Z M 758.359375 375.371094 " fill-opacity="1" fill-rule="nonzero"/><path fill="#ffffff" d="M 634.855469 375.371094 L 625.816406 375.371094 C 605.648438 375.371094 589.238281 391.769531 589.238281 411.925781 L 589.238281 465.296875 C 589.238281 485.449219 605.648438 501.851562 625.816406 501.851562 L 634.855469 501.851562 C 655.023438 501.851562 671.433594 485.449219 671.433594 465.296875 L 671.433594 411.925781 C 671.433594 391.769531 655.023438 375.371094 634.855469 375.371094 Z M 650.570312 465.433594 C 650.570312 474.054688 643.480469 481.140625 634.855469 481.140625 L 625.816406 481.140625 C 617.191406 481.140625 610.101562 474.054688 610.101562 465.433594 L 610.101562 412.0625 C 610.101562 403.445312 617.195312 396.355469 625.816406 396.355469 L 634.855469 396.355469 C 643.480469 396.355469 650.570312 403.445312 650.570312 412.0625 Z M 650.570312 465.433594 " fill-opacity="1" fill-rule="nonzero"/><path fill="#ffffff" d="M 904.53125 478.5 C 898.828125 478.5 894.097656 483.226562 894.097656 488.925781 L 894.097656 491.566406 C 894.097656 497.265625 898.828125 501.988281 904.53125 501.988281 C 910.230469 501.988281 914.960938 497.265625 914.960938 491.566406 L 914.960938 488.925781 C 914.960938 483.085938 910.230469 478.5 904.53125 478.5 Z M 904.53125 478.5 " fill-opacity="1" fill-rule="nonzero"/><path fill="#ffffff" d="M 904.53125 375.371094 C 898.828125 375.371094 894.097656 380.09375 894.097656 385.792969 L 894.097656 458.070312 C 894.097656 463.765625 898.828125 468.492188 904.53125 468.492188 C 910.230469 468.492188 914.960938 463.765625 914.960938 458.070312 L 914.960938 385.792969 C 914.960938 380.09375 910.230469 375.371094 904.53125 375.371094 Z M 904.53125 375.371094 " fill-opacity="1" fill-rule="nonzero"/><g clip-path="url(#dcb8fb6353)"><path fill="#fed402" d="M 534.582031 170.914062 C 534.582031 173.210938 534.523438 175.507812 534.410156 177.804688 C 534.296875 180.097656 534.128906 182.386719 533.902344 184.675781 C 533.679688 186.960938 533.398438 189.242188 533.058594 191.511719 C 532.722656 193.785156 532.328125 196.046875 531.882812 198.300781 C 531.433594 200.554688 530.929688 202.796875 530.371094 205.023438 C 529.8125 207.253906 529.199219 209.464844 528.53125 211.664062 C 527.863281 213.863281 527.144531 216.042969 526.371094 218.207031 C 525.59375 220.371094 524.769531 222.511719 523.886719 224.636719 C 523.007812 226.757812 522.078125 228.859375 521.09375 230.933594 C 520.109375 233.011719 519.078125 235.0625 517.992188 237.089844 C 516.910156 239.117188 515.777344 241.113281 514.597656 243.085938 C 513.414062 245.054688 512.183594 246.996094 510.90625 248.90625 C 509.628906 250.816406 508.308594 252.695312 506.9375 254.539062 C 505.566406 256.382812 504.152344 258.195312 502.695312 259.972656 C 501.238281 261.746094 499.734375 263.484375 498.191406 265.1875 C 496.648438 266.890625 495.0625 268.554688 493.4375 270.179688 C 491.8125 271.804688 490.148438 273.386719 488.445312 274.929688 C 486.742188 276.472656 485 277.972656 483.222656 279.429688 C 481.445312 280.886719 479.636719 282.300781 477.789062 283.667969 C 475.941406 285.039062 474.0625 286.359375 472.152344 287.636719 C 470.242188 288.914062 468.296875 290.140625 466.328125 291.324219 C 464.355469 292.503906 462.355469 293.636719 460.328125 294.71875 C 458.300781 295.800781 456.246094 296.835938 454.167969 297.816406 C 452.089844 298.800781 449.992188 299.730469 447.867188 300.609375 C 445.742188 301.488281 443.597656 302.316406 441.433594 303.089844 C 439.269531 303.863281 437.085938 304.582031 434.886719 305.25 C 432.6875 305.917969 430.472656 306.53125 428.242188 307.089844 C 426.011719 307.644531 423.769531 308.148438 421.515625 308.597656 C 419.261719 309.046875 416.996094 309.4375 414.722656 309.777344 C 412.449219 310.113281 410.167969 310.394531 407.878906 310.621094 C 405.589844 310.84375 403.300781 311.011719 401.003906 311.125 C 398.707031 311.238281 396.410156 311.296875 394.109375 311.296875 C 391.8125 311.296875 389.515625 311.238281 387.21875 311.125 C 384.921875 311.011719 382.628906 310.84375 380.34375 310.621094 C 378.054688 310.394531 375.773438 310.113281 373.5 309.777344 C 371.226562 309.4375 368.960938 309.046875 366.707031 308.597656 C 364.453125 308.148438 362.210938 307.644531 359.980469 307.089844 C 357.75 306.53125 355.535156 305.917969 353.335938 305.25 C 351.136719 304.582031 348.953125 303.863281 346.789062 303.089844 C 344.625 302.316406 342.480469 301.488281 340.355469 300.609375 C 338.230469 299.730469 336.128906 298.800781 334.050781 297.816406 C 331.972656 296.835938 329.921875 295.800781 327.894531 294.71875 C 325.867188 293.636719 323.867188 292.503906 321.894531 291.324219 C 319.921875 290.140625 317.980469 288.914062 316.070312 287.636719 C 314.160156 286.359375 312.28125 285.039062 310.433594 283.667969 C 308.585938 282.300781 306.773438 280.886719 305 279.429688 C 303.222656 277.972656 301.480469 276.472656 299.777344 274.929688 C 298.074219 273.386719 296.410156 271.804688 294.785156 270.179688 C 293.160156 268.554688 291.574219 266.890625 290.03125 265.1875 C 288.484375 263.484375 286.984375 261.746094 285.527344 259.972656 C 284.066406 258.195312 282.65625 256.382812 281.285156 254.539062 C 279.914062 252.695312 278.59375 250.816406 277.316406 248.90625 C 276.039062 246.996094 274.808594 245.054688 273.625 243.085938 C 272.445312 241.113281 271.3125 239.117188 270.226562 237.089844 C 269.144531 235.0625 268.109375 233.011719 267.128906 230.933594 C 266.144531 228.859375 265.214844 226.757812 264.335938 224.636719 C 263.453125 222.511719 262.628906 220.371094 261.851562 218.207031 C 261.078125 216.042969 260.359375 213.863281 259.691406 211.664062 C 259.023438 209.464844 258.410156 207.253906 257.851562 205.023438 C 257.292969 202.796875 256.789062 200.554688 256.339844 198.300781 C 255.890625 196.046875 255.5 193.785156 255.160156 191.511719 C 254.824219 189.242188 254.542969 186.960938 254.316406 184.675781 C 254.09375 182.386719 253.921875 180.097656 253.8125 177.804688 C 253.699219 175.507812 253.640625 173.210938 253.640625 170.914062 C 253.640625 168.617188 253.699219 166.320312 253.8125 164.027344 C 253.921875 161.730469 254.09375 159.441406 254.316406 157.15625 C 254.542969 154.867188 254.824219 152.589844 255.160156 150.316406 C 255.5 148.042969 255.890625 145.78125 256.339844 143.527344 C 256.789062 141.273438 257.292969 139.035156 257.851562 136.804688 C 258.410156 134.578125 259.023438 132.363281 259.691406 130.164062 C 260.359375 127.964844 261.078125 125.785156 261.851562 123.621094 C 262.628906 121.460938 263.453125 119.316406 264.335938 117.195312 C 265.214844 115.070312 266.144531 112.972656 267.128906 110.894531 C 268.109375 108.816406 269.144531 106.765625 270.226562 104.738281 C 271.3125 102.714844 272.445312 100.714844 273.625 98.746094 C 274.808594 96.773438 276.039062 94.835938 277.316406 92.925781 C 278.59375 91.015625 279.914062 89.136719 281.285156 87.289062 C 282.65625 85.445312 284.066406 83.632812 285.527344 81.859375 C 286.984375 80.082031 288.484375 78.34375 290.03125 76.640625 C 291.574219 74.9375 293.160156 73.277344 294.785156 71.652344 C 296.410156 70.027344 298.074219 68.441406 299.777344 66.898438 C 301.480469 65.355469 303.222656 63.855469 305 62.398438 C 306.773438 60.941406 308.585938 59.527344 310.433594 58.160156 C 312.28125 56.792969 314.160156 55.46875 316.070312 54.191406 C 317.980469 52.917969 319.921875 51.6875 321.894531 50.507812 C 323.867188 49.324219 325.867188 48.195312 327.894531 47.109375 C 329.921875 46.027344 331.972656 44.996094 334.050781 44.011719 C 336.128906 43.03125 338.230469 42.101562 340.355469 41.21875 C 342.480469 40.339844 344.625 39.515625 346.789062 38.742188 C 348.953125 37.96875 351.136719 37.246094 353.335938 36.578125 C 355.535156 35.914062 357.75 35.300781 359.980469 34.742188 C 362.210938 34.183594 364.453125 33.679688 366.707031 33.230469 C 368.960938 32.785156 371.226562 32.390625 373.5 32.054688 C 375.773438 31.71875 378.054688 31.4375 380.34375 31.210938 C 382.628906 30.984375 384.921875 30.816406 387.21875 30.703125 C 389.515625 30.589844 391.8125 30.535156 394.109375 30.535156 C 396.410156 30.535156 398.707031 30.589844 401.003906 30.703125 C 403.300781 30.816406 405.589844 30.984375 407.878906 31.210938 C 410.167969 31.4375 412.449219 31.71875 414.722656 32.054688 C 416.996094 32.390625 419.261719 32.785156 421.515625 33.230469 C 423.769531 33.679688 426.011719 34.183594 428.242188 34.742188 C 430.472656 35.300781 432.6875 35.914062 434.886719 36.578125 C 437.085938 37.246094 439.269531 37.96875 441.433594 38.742188 C 443.597656 39.515625 445.742188 40.339844 447.867188 41.21875 C 449.992188 42.101562 452.089844 43.03125 454.167969 44.011719 C 456.246094 44.996094 458.300781 46.027344 460.328125 47.109375 C 462.355469 48.195312 464.355469 49.324219 466.328125 50.507812 C 468.296875 51.6875 470.242188 52.917969 472.152344 54.191406 C 474.0625 55.46875 475.941406 56.792969 477.789062 58.160156 C 479.636719 59.527344 481.445312 60.941406 483.222656 62.398438 C 485 63.855469 486.742188 65.355469 488.445312 66.898438 C 490.148438 68.441406 491.8125 70.027344 493.4375 71.652344 C 495.0625 73.277344 496.648438 74.9375 498.191406 76.640625 C 499.734375 78.34375 501.238281 80.082031 502.695312 81.859375 C 504.152344 83.632812 505.566406 85.445312 506.9375 87.289062 C 508.308594 89.136719 509.628906 91.015625 510.90625 92.925781 C 512.183594 94.835938 513.414062 96.773438 514.597656 98.746094 C 515.777344 100.714844 516.910156 102.714844 517.992188 104.742188 C 519.078125 106.765625 520.109375 108.816406 521.09375 110.894531 C 522.078125 112.972656 523.007812 115.070312 523.886719 117.195312 C 524.769531 119.316406 525.59375 121.460938 526.371094 123.621094 C 527.144531 125.785156 527.863281 127.964844 528.53125 130.164062 C 529.199219 132.363281 529.8125 134.578125 530.371094 136.804688 C 530.929688 139.035156 531.433594 141.273438 531.882812 143.527344 C 532.328125 145.78125 532.722656 148.042969 533.058594 150.316406 C 533.398438 152.589844 533.679688 154.867188 533.902344 157.15625 C 534.128906 159.441406 534.296875 161.730469 534.410156 164.027344 C 534.523438 166.320312 534.582031 168.617188 534.582031 170.914062 Z M 534.582031 170.914062 " fill-opacity="1" fill-rule="nonzero"/></g><g clip-path="url(#e33baf19ef)"><path fill="#fac600" d="M 331.527344 170.914062 C 331.527344 106.839844 374.363281 52.914062 433.054688 35.957031 C 420.675781 32.339844 407.601562 30.535156 394.109375 30.535156 C 316.503906 30.535156 253.640625 93.359375 253.640625 170.914062 C 253.640625 248.472656 316.503906 311.296875 394.109375 311.296875 C 407.601562 311.296875 420.675781 309.347656 433.054688 305.875 C 374.363281 288.917969 331.527344 234.988281 331.527344 170.914062 Z M 331.527344 170.914062 " fill-opacity="1" fill-rule="nonzero"/></g><path fill="#fb8801" d="M 394.109375 262.230469 C 355.167969 262.230469 322.347656 234.433594 315.808594 196.210938 C 314.558594 188.707031 319.566406 181.476562 327.214844 180.226562 C 334.722656 178.976562 341.957031 183.980469 343.207031 191.625 C 347.378906 216.503906 368.796875 234.433594 394.109375 234.433594 C 419.421875 234.433594 440.839844 216.363281 445.015625 191.625 C 446.265625 184.117188 453.496094 178.976562 461.007812 180.226562 C 468.519531 181.476562 473.664062 188.707031 472.414062 196.210938 C 465.875 234.433594 433.054688 262.09375 394.109375 262.230469 Z M 394.109375 262.230469 " fill-opacity="1" fill-rule="nonzero"/><path fill="#fb8801" d="M 367.546875 129.355469 C 367.546875 130.039062 367.511719 130.722656 367.445312 131.402344 C 367.378906 132.078125 367.28125 132.753906 367.144531 133.425781 C 367.011719 134.09375 366.847656 134.753906 366.648438 135.410156 C 366.449219 136.0625 366.21875 136.703125 365.960938 137.335938 C 365.699219 137.964844 365.40625 138.582031 365.082031 139.183594 C 364.761719 139.785156 364.410156 140.371094 364.03125 140.941406 C 363.652344 141.507812 363.246094 142.054688 362.8125 142.582031 C 362.378906 143.109375 361.917969 143.617188 361.4375 144.097656 C 360.953125 144.582031 360.449219 145.039062 359.917969 145.472656 C 359.390625 145.90625 358.84375 146.3125 358.277344 146.691406 C 357.707031 147.070312 357.121094 147.421875 356.519531 147.742188 C 355.917969 148.066406 355.300781 148.355469 354.667969 148.617188 C 354.039062 148.878906 353.394531 149.109375 352.742188 149.308594 C 352.085938 149.507812 351.425781 149.671875 350.753906 149.804688 C 350.085938 149.9375 349.410156 150.039062 348.730469 150.105469 C 348.050781 150.171875 347.367188 150.207031 346.683594 150.207031 C 346.003906 150.207031 345.320312 150.171875 344.640625 150.105469 C 343.960938 150.039062 343.285156 149.9375 342.617188 149.804688 C 341.945312 149.671875 341.28125 149.507812 340.628906 149.308594 C 339.976562 149.109375 339.332031 148.878906 338.703125 148.617188 C 338.070312 148.355469 337.453125 148.066406 336.851562 147.742188 C 336.25 147.421875 335.664062 147.070312 335.09375 146.691406 C 334.527344 146.3125 333.980469 145.90625 333.449219 145.472656 C 332.921875 145.039062 332.417969 144.582031 331.933594 144.097656 C 331.449219 143.617188 330.992188 143.109375 330.558594 142.582031 C 330.125 142.054688 329.71875 141.507812 329.339844 140.941406 C 328.960938 140.371094 328.609375 139.785156 328.285156 139.183594 C 327.964844 138.582031 327.671875 137.964844 327.410156 137.335938 C 327.148438 136.703125 326.921875 136.0625 326.722656 135.410156 C 326.523438 134.753906 326.359375 134.09375 326.222656 133.425781 C 326.089844 132.753906 325.992188 132.078125 325.925781 131.402344 C 325.855469 130.722656 325.824219 130.039062 325.824219 129.355469 C 325.824219 128.675781 325.855469 127.992188 325.925781 127.3125 C 325.992188 126.632812 326.089844 125.960938 326.222656 125.289062 C 326.359375 124.621094 326.523438 123.957031 326.722656 123.304688 C 326.921875 122.652344 327.148438 122.007812 327.410156 121.378906 C 327.671875 120.746094 327.964844 120.132812 328.285156 119.527344 C 328.609375 118.925781 328.960938 118.34375 329.339844 117.773438 C 329.71875 117.207031 330.125 116.660156 330.558594 116.128906 C 330.992188 115.601562 331.449219 115.097656 331.933594 114.613281 C 332.417969 114.132812 332.921875 113.675781 333.449219 113.242188 C 333.980469 112.808594 334.527344 112.402344 335.09375 112.023438 C 335.664062 111.644531 336.25 111.292969 336.851562 110.96875 C 337.453125 110.648438 338.070312 110.355469 338.703125 110.09375 C 339.332031 109.835938 339.976562 109.605469 340.628906 109.40625 C 341.28125 109.207031 341.945312 109.042969 342.617188 108.910156 C 343.285156 108.777344 343.960938 108.675781 344.640625 108.609375 C 345.320312 108.542969 346.003906 108.507812 346.683594 108.507812 C 347.367188 108.507812 348.050781 108.542969 348.730469 108.609375 C 349.410156 108.675781 350.085938 108.777344 350.753906 108.910156 C 351.425781 109.042969 352.085938 109.207031 352.742188 109.40625 C 353.394531 109.605469 354.039062 109.835938 354.667969 110.09375 C 355.300781 110.355469 355.917969 110.648438 356.519531 110.96875 C 357.121094 111.292969 357.707031 111.644531 358.277344 112.023438 C 358.84375 112.402344 359.390625 112.808594 359.917969 113.242188 C 360.449219 113.675781 360.953125 114.132812 361.4375 114.613281 C 361.917969 115.097656 362.378906 115.601562 362.8125 116.128906 C 363.246094 116.660156 363.652344 117.207031 364.03125 117.773438 C 364.410156 118.34375 364.761719 118.925781 365.082031 119.527344 C 365.40625 120.132812 365.699219 120.746094 365.960938 121.378906 C 366.21875 122.007812 366.449219 122.652344 366.648438 123.304688 C 366.847656 123.957031 367.011719 124.621094 367.144531 125.289062 C 367.28125 125.960938 367.378906 126.632812 367.445312 127.3125 C 367.511719 127.992188 367.546875 128.675781 367.546875 129.355469 Z M 367.546875 129.355469 " fill-opacity="1" fill-rule="nonzero"/><path fill="#fb8801" d="M 462.398438 129.355469 C 462.398438 130.039062 462.367188 130.722656 462.296875 131.402344 C 462.230469 132.078125 462.132812 132.753906 461.996094 133.425781 C 461.863281 134.09375 461.699219 134.753906 461.5 135.410156 C 461.300781 136.0625 461.070312 136.703125 460.8125 137.335938 C 460.550781 137.964844 460.257812 138.582031 459.933594 139.183594 C 459.613281 139.785156 459.261719 140.371094 458.882812 140.941406 C 458.503906 141.507812 458.097656 142.054688 457.664062 142.582031 C 457.230469 143.109375 456.773438 143.617188 456.289062 144.097656 C 455.804688 144.582031 455.300781 145.039062 454.773438 145.472656 C 454.242188 145.90625 453.695312 146.3125 453.128906 146.691406 C 452.558594 147.070312 451.972656 147.421875 451.371094 147.742188 C 450.769531 148.066406 450.152344 148.355469 449.519531 148.617188 C 448.890625 148.878906 448.246094 149.109375 447.59375 149.308594 C 446.9375 149.507812 446.277344 149.671875 445.605469 149.804688 C 444.9375 149.9375 444.261719 150.039062 443.582031 150.105469 C 442.902344 150.171875 442.21875 150.207031 441.535156 150.207031 C 440.855469 150.207031 440.171875 150.171875 439.492188 150.105469 C 438.8125 150.039062 438.136719 149.9375 437.46875 149.804688 C 436.796875 149.671875 436.136719 149.507812 435.480469 149.308594 C 434.828125 149.109375 434.183594 148.878906 433.554688 148.617188 C 432.921875 148.355469 432.304688 148.066406 431.703125 147.742188 C 431.101562 147.421875 430.515625 147.070312 429.945312 146.691406 C 429.378906 146.3125 428.832031 145.90625 428.300781 145.472656 C 427.773438 145.039062 427.269531 144.582031 426.785156 144.097656 C 426.300781 143.617188 425.84375 143.109375 425.410156 142.582031 C 424.976562 142.054688 424.570312 141.507812 424.191406 140.941406 C 423.8125 140.371094 423.460938 139.785156 423.136719 139.183594 C 422.816406 138.582031 422.523438 137.964844 422.261719 137.335938 C 422 136.703125 421.773438 136.0625 421.574219 135.410156 C 421.375 134.753906 421.210938 134.09375 421.074219 133.425781 C 420.941406 132.753906 420.84375 132.078125 420.777344 131.402344 C 420.707031 130.722656 420.675781 130.039062 420.675781 129.355469 C 420.675781 128.675781 420.707031 127.992188 420.777344 127.3125 C 420.84375 126.632812 420.941406 125.960938 421.074219 125.289062 C 421.210938 124.621094 421.375 123.957031 421.574219 123.304688 C 421.773438 122.652344 422 122.007812 422.261719 121.378906 C 422.523438 120.746094 422.816406 120.132812 423.136719 119.527344 C 423.460938 118.925781 423.8125 118.34375 424.191406 117.773438 C 424.570312 117.207031 424.976562 116.660156 425.410156 116.128906 C 425.84375 115.601562 426.300781 115.097656 426.785156 114.613281 C 427.269531 114.132812 427.773438 113.675781 428.300781 113.242188 C 428.832031 112.808594 429.378906 112.402344 429.945312 112.023438 C 430.515625 111.644531 431.101562 111.292969 431.703125 110.96875 C 432.304688 110.648438 432.921875 110.355469 433.554688 110.09375 C 434.183594 109.835938 434.828125 109.605469 435.480469 109.40625 C 436.136719 109.207031 436.796875 109.042969 437.46875 108.910156 C 438.136719 108.777344 438.8125 108.675781 439.492188 108.609375 C 440.171875 108.542969 440.855469 108.507812 441.535156 108.507812 C 442.21875 108.507812 442.902344 108.542969 443.582031 108.609375 C 444.261719 108.675781 444.9375 108.777344 445.605469 108.910156 C 446.277344 109.042969 446.9375 109.207031 447.59375 109.40625 C 448.246094 109.605469 448.890625 109.835938 449.519531 110.09375 C 450.152344 110.355469 450.769531 110.648438 451.371094 110.96875 C 451.972656 111.292969 452.558594 111.644531 453.128906 112.023438 C 453.695312 112.402344 454.242188 112.808594 454.773438 113.242188 C 455.300781 113.675781 455.804688 114.132812 456.289062 114.613281 C 456.773438 115.097656 457.230469 115.601562 457.664062 116.128906 C 458.097656 116.660156 458.503906 117.207031 458.882812 117.773438 C 459.261719 118.34375 459.613281 118.925781 459.933594 119.527344 C 460.257812 120.132812 460.550781 120.746094 460.8125 121.378906 C 461.070312 122.007812 461.300781 122.652344 461.5 123.304688 C 461.699219 123.957031 461.863281 124.621094 461.996094 125.289062 C 462.132812 125.960938 462.230469 126.632812 462.296875 127.3125 C 462.367188 127.992188 462.398438 128.675781 462.398438 129.355469 Z M 462.398438 129.355469 " fill-opacity="1" fill-rule="nonzero"/><g clip-path="url(#243bc36a0a)"><path fill="#fed402" d="M 261.152344 125.742188 C 256.285156 139.921875 253.640625 155.070312 253.640625 170.914062 C 253.640625 181.0625 254.753906 190.929688 256.703125 200.382812 C 258.09375 200.519531 259.484375 200.660156 260.734375 200.660156 C 281.457031 200.660156 298.285156 183.839844 298.285156 163.132812 C 298.425781 142.5625 281.734375 125.882812 261.152344 125.742188 Z M 261.152344 125.742188 " fill-opacity="1" fill-rule="nonzero"/></g><path fill="#fee45a" d="M 489.101562 163.132812 C 489.101562 183.839844 505.929688 200.660156 526.652344 200.660156 C 528.320312 200.660156 529.992188 200.519531 531.519531 200.382812 C 533.605469 190.929688 534.582031 181.0625 534.582031 170.914062 C 534.582031 155.070312 531.9375 139.921875 527.070312 125.605469 C 526.929688 125.605469 526.652344 125.605469 526.515625 125.605469 C 505.929688 125.742188 489.101562 142.421875 489.101562 163.132812 Z M 489.101562 163.132812 " fill-opacity="1" fill-rule="nonzero"/></svg>